<svg>
    <symbol viewBox="0 0 24 24" id="list" fill="none"
        xmlns="http://www.w3.org/2000/svg">
        <path d="M8 6H21" stroke="#FF2E4C" stroke-width="2" stroke-linecap="round" stroke-linejoin="round" />
        <path d="M8 12H21" stroke="#FF2E4C" stroke-width="2" stroke-linecap="round" stroke-linejoin="round" />
        <path d="M8 18H21" stroke="#FF2E4C" stroke-width="2" stroke-linecap="round" stroke-linejoin="round" />
        <path d="M3 6H3.01" stroke="#FF2E4C" stroke-width="2" stroke-linecap="round" stroke-linejoin="round" />
        <path d="M3 12H3.01" stroke="#FF2E4C" stroke-width="2" stroke-linecap="round" stroke-linejoin="round" />
        <path d="M3 18H3.01" stroke="#FF2E4C" stroke-width="2" stroke-linecap="round" stroke-linejoin="round" />
    </symbol>
    <symbol viewBox="0 0 28 28" id="search" fill="none"
        xmlns="http://www.w3.org/2000/svg">
        <path d="M12.8333 22.1667C17.988 22.1667 22.1667 17.988 22.1667 12.8333C22.1667 7.67868 17.988 3.5 12.8333 3.5C7.67868 3.5 3.5 7.67868 3.5 12.8333C3.5 17.988 7.67868 22.1667 12.8333 22.1667Z" stroke="#001C1C" stroke-width="2" stroke-linecap="round" stroke-linejoin="round" />
        <path d="M24.5001 24.5001L19.4834 19.4834" stroke="#001C1C" stroke-width="2" stroke-linecap="round" stroke-linejoin="round" />
    </symbol>
    <symbol viewBox="0 0 19 17" id="telegram" fill="none"
        xmlns="http://www.w3.org/2000/svg">
        <path d="M19 0.602225L15.9946 16.2923C15.9946 16.2923 15.5741 17.3801 14.4189 16.8584L7.48458 11.3526L7.45242 11.3364C8.38909 10.4654 15.6524 3.70266 15.9698 3.39612C16.4613 2.92136 16.1562 2.63873 15.5856 2.99736L4.85679 10.053L0.717638 8.61077C0.717638 8.61077 0.0662573 8.37083 0.00359284 7.84911C-0.0598962 7.32653 0.739076 7.0439 0.739076 7.0439L17.6131 0.188948C17.6131 0.188948 19 -0.44207 19 0.602225Z" fill="#001C1C" />
    </symbol>
    <symbol viewBox="0 0 48 48" id="cabinet" fill="none"
        xmlns="http://www.w3.org/2000/svg">
        <path d="M14 33C13.9999 31.4603 14.4441 29.9533 15.2793 28.6598C16.1146 27.3664 17.3053 26.3414 18.7086 25.708C20.1119 25.0745 21.6682 24.8595 23.1908 25.0886C24.7133 25.3178 26.1373 25.9815 27.292 27" stroke="#001C1C" stroke-width="1.5" stroke-linecap="round" stroke-linejoin="round" />
        <path d="M22 25C24.7614 25 27 22.7614 27 20C27 17.2386 24.7614 15 22 15C19.2386 15 17 17.2386 17 20C17 22.7614 19.2386 25 22 25Z" stroke="#001C1C" stroke-width="1.5" stroke-linecap="round" stroke-linejoin="round" />
        <path d="M31 28V34" stroke="#FF2E4C" stroke-width="1.5" stroke-linecap="round" stroke-linejoin="round" />
        <path d="M34 31H28" stroke="#FF2E4C" stroke-width="1.5" stroke-linecap="round" stroke-linejoin="round" />
    </symbol>
</svg>